<?xml version="1.0" encoding="UTF-8" standalone="no"?>
<svg
   xmlns:dc="http://purl.org/dc/elements/1.1/"
   xmlns:cc="http://creativecommons.org/ns#"
   xmlns:rdf="http://www.w3.org/1999/02/22-rdf-syntax-ns#"
   xmlns:svg="http://www.w3.org/2000/svg"
   xmlns="http://www.w3.org/2000/svg"
   xmlns:sodipodi="http://sodipodi.sourceforge.net/DTD/sodipodi-0.dtd"
   xmlns:inkscape="http://www.inkscape.org/namespaces/inkscape"
   width="512"
   height="512"
   viewBox="0 0 135.46666 135.46667"
   version="1.1"
   id="svg8"
   inkscape:version="1.0.2 (e86c870879, 2021-01-15)"
   sodipodi:docname="paledega.svg">
  <defs
     id="defs2" />
  <sodipodi:namedview
     id="base"
     pagecolor="#ffffff"
     bordercolor="#666666"
     borderopacity="1.0"
     inkscape:pageopacity="0.0"
     inkscape:pageshadow="2"
     inkscape:zoom="0.35"
     inkscape:cx="-1017.3111"
     inkscape:cy="290.10785"
     inkscape:document-units="mm"
     inkscape:current-layer="layer1"
     inkscape:document-rotation="0"
     showgrid="false"
     inkscape:snap-global="false"
     units="px"
     inkscape:window-width="1920"
     inkscape:window-height="1029"
     inkscape:window-x="0"
     inkscape:window-y="0"
     inkscape:window-maximized="1" />
  <metadata
     id="metadata5">
    <rdf:RDF>
      <cc:Work
         rdf:about="">
        <dc:format>image/svg+xml</dc:format>
        <dc:type
           rdf:resource="http://purl.org/dc/dcmitype/StillImage" />
        <dc:title></dc:title>
      </cc:Work>
    </rdf:RDF>
  </metadata>
  <g
     inkscape:label="Layer 1"
     inkscape:groupmode="layer"
     id="layer1">
    <g
       id="g3101"
       transform="matrix(1.1731547,0,0,1.1731547,-4.7106901,-88.697716)">
      <g
         id="g3067"
         style="stroke-width:1;stroke-miterlimit:4;stroke-dasharray:none">
        <path
           style="fill:#00bc1f;fill-opacity:1;stroke:#000000;stroke-width:1;stroke-linecap:butt;stroke-linejoin:miter;stroke-miterlimit:4;stroke-dasharray:none;stroke-opacity:1"
           d="m 114.91892,152.74592 c 0,0 -6.05864,-7.82287 -8.6144,-12.45895 -1.98384,-3.59864 -3.26127,-7.48223 -3.9487,-11.58174 -0.75425,-4.49792 -0.87743,-9.22925 -2.32655,-13.49862 -0.491749,-1.44879 -0.174289,-3.29952 -0.978069,-5.17043 -1.82238,-4.24192 -5.55406,-8.58761 -5.55406,-8.58761 0,0 -3.11593,-3.738594 -5.43827,-5.059684 -3.7862,-2.15381 -7.05411,-1.28907 -10.8404,-3.44271 -4.05195,-2.30476 -11.720491,-10.183255 -11.720491,-10.183255 0,0 -7.557238,-5.486478 -11.931563,-5.791383 -4.783839,-0.333449 -13.420668,3.46593 -13.420668,3.46593 0,0 -4.465829,1.271342 -6.250983,2.544266 -2.155912,1.537299 -5.201571,5.33742 -8.293128,7.365002 -3.541657,2.32277 -8.284868,2.70879 -11.524202,5.35166 -2.902598,2.36815 -5.097717,6.454444 -5.746675,10.345514 -0.559106,3.35231 0.05817,7.1134 1.790403,10.03744 2.598469,4.38625 11.914956,9.58932 11.914956,9.58932 0,0 7.826947,4.29348 12.131881,5.20577 4.426905,0.93815 13.574626,0.16726 13.574626,0.16726 0,0 7.909382,-1.16826 11.699785,-0.24681 4.355312,1.05877 8.193284,3.78008 11.813009,6.42344 4.34034,3.1696 7.69533,7.50689 11.64832,11.14815 1.96249,1.80774 5.98991,5.30986 5.98991,5.30986 l 11.805059,12.91045 c 0,0 0.0905,3.95351 0.94294,5.669 0.82411,1.6584 2.68235,2.57312 3.81754,4.03626 0.82295,1.06069 1.11582,2.54766 2.14663,3.40775 1.9487,1.62596 7.0649,2.83863 7.0649,2.83863 z"
           id="path851"
           sodipodi:nodetypes="csssscsscscsasaacacaaaccaaacc" />
        <g
           id="g900"
           transform="translate(-30.129459,-10.537194)"
           style="stroke-width:1;stroke-miterlimit:4;stroke-dasharray:none">
          <path
             style="fill:#9d0909;fill-opacity:1;stroke:#000000;stroke-width:1;stroke-linecap:round;stroke-linejoin:round;stroke-miterlimit:4;stroke-dasharray:none;stroke-opacity:1"
             d="m 55.393414,102.86163 c 0.500483,-0.46512 1.374796,-0.1089 2.024605,-0.32003 0.692309,-0.22493 1.23691,-0.82527 1.945499,-0.99198 1.269477,-0.29866 2.707317,-0.46216 3.912234,0.0368 1.092733,0.45249 2.311587,1.32285 2.532922,2.48467 0.117894,0.61885 -0.268623,1.34285 -0.768064,1.72682 -0.962131,0.73967 -2.427443,0.24412 -3.595118,0.57479 -0.882148,0.24982 -1.623604,1.06025 -2.540424,1.05432 -1.040634,-0.007 -1.98639,-0.68062 -2.867787,-1.23389 -0.442364,-0.27768 -1.02253,-0.53011 -1.183363,-1.02702 -0.242937,-0.75059 -0.0384,-1.7674 0.539496,-2.30447 z"
             id="path864"
             sodipodi:nodetypes="aaaaaaaaaaa" />
          <path
             style="fill:#8a0708;fill-opacity:1;stroke:#000000;stroke-width:1;stroke-linecap:round;stroke-linejoin:round;stroke-miterlimit:4;stroke-dasharray:none;stroke-opacity:1"
             d="m 77.415553,106.57896 4.743866,0.16527 2.471033,0.28916 3.020035,0.46258 -0.0622,2.08056 -2.785293,0.4589 c 0,0 -2.003238,0.58528 -2.186884,0.55955 l -3.43696,-0.48149 c 0,0 -1.589936,-1.18712 -1.758605,-1.24833 0,0 -0.005,-2.2862 -0.005,-2.2862 z"
             id="path866"
             sodipodi:nodetypes="ccccccscsc" />
          <path
             style="fill:none;fill-opacity:1;stroke:#000000;stroke-width:1;stroke-linecap:round;stroke-linejoin:round;stroke-miterlimit:4;stroke-dasharray:none;stroke-opacity:1"
             d="m 67.155758,112.21298 c 0,0 -0.690546,2.32644 -1.471264,3.20544 -0.757458,0.85281 -2.919744,1.78449 -2.919744,1.78449 0,0 1.304984,0.58164 1.997053,0.73963 1.021993,0.2333 3.130915,0.29572 3.130915,0.29572 l 2.866942,-0.90205"
             id="path868"
             sodipodi:nodetypes="cacacc" />
          <g
             id="g888"
             style="stroke-width:1;stroke-miterlimit:4;stroke-dasharray:none">
            <path
               style="fill:#ffffff;fill-opacity:0.920032;stroke:#000000;stroke-width:1;stroke-linecap:round;stroke-linejoin:round;stroke-miterlimit:4;stroke-dasharray:none;stroke-opacity:1"
               d="m 55.522317,129.5004 c 0,0 -0.974084,-0.0868 0.192088,-0.072 0.531504,0.007 1.864075,-0.7187 2.968561,-1.2677 0.787068,-0.39122 1.094025,-0.87912 1.734372,-1.03871 1.142706,-0.28478 2.437858,-0.0177 3.948363,-0.0194 1.702151,-0.002 3.666944,-0.0636 3.666944,-0.0636 l 3.534351,-0.1121 2.770393,-0.65998 6.223475,0.0472 0.488884,6.33518 -1.967423,0.35166 -1.007969,0.73475 -4.080518,0.0306 c 0,0 -3.253672,-0.75112 -4.911297,-0.90209 -1.16961,-0.10652 -2.380372,-0.27005 -3.523353,0 -0.995725,0.23526 -2.744845,1.37374 -2.744845,1.37374 l -3.382482,-0.78875 c 0,0 -2.10615,-0.50723 -2.820916,-1.246 -0.675351,-0.69803 -1.088628,-2.70278 -1.088628,-2.70278 z"
               id="path870"
               sodipodi:nodetypes="cssssccccccccaaccacc" />
            <path
               style="fill:none;stroke:#000000;stroke-width:1;stroke-linecap:round;stroke-linejoin:round;stroke-miterlimit:4;stroke-dasharray:none;stroke-opacity:1"
               d="m 61.630307,126.92619 1.184036,7.31181"
               id="path872"
               sodipodi:nodetypes="cc" />
            <path
               style="fill:none;stroke:#000000;stroke-width:1;stroke-linecap:round;stroke-linejoin:round;stroke-miterlimit:4;stroke-dasharray:none;stroke-opacity:1"
               d="m 68.745001,126.76074 0.129331,6.99901"
               id="path874"
               sodipodi:nodetypes="cc" />
            <path
               style="fill:none;stroke:#000000;stroke-width:1;stroke-linecap:round;stroke-linejoin:round;stroke-miterlimit:4;stroke-dasharray:none;stroke-opacity:1"
               d="m 74.94581,126.34839 0.38387,7.26496"
               id="path876"
               sodipodi:nodetypes="cc" />
            <path
               style="fill:none;stroke:#000000;stroke-width:1;stroke-linecap:round;stroke-linejoin:round;stroke-miterlimit:4;stroke-dasharray:none;stroke-opacity:1"
               d="m 56.596472,131.79675 2.108528,-0.68082 3.547476,0.25024 3.676882,-1.80669 5.233369,-0.16954 4.325527,1.09466 2.124498,0.56377 3.327215,-0.97903"
               id="path878" />
            <rect
               style="fill:#030303;fill-opacity:1;stroke:none;stroke-width:1;stroke-linecap:round;stroke-linejoin:round;stroke-miterlimit:4;stroke-dasharray:none;stroke-opacity:1;paint-order:stroke fill markers"
               id="rect880"
               width="5.7591147"
               height="3.0544124"
               x="68.977173"
               y="126.69514"
               ry="0" />
          </g>
        </g>
        <g
           id="g862"
           style="fill:#06971a;fill-opacity:1;stroke:#030000;stroke-width:1;stroke-miterlimit:4;stroke-dasharray:none;stroke-opacity:1"
           transform="translate(-30.129459,-10.537194)">
          <path
             style="fill:#06971a;fill-opacity:1;stroke:#030000;stroke-width:1;stroke-linecap:round;stroke-linejoin:round;stroke-miterlimit:4;stroke-dasharray:none;stroke-opacity:1"
             d="m 143.74232,159.0299 c 0,0 -3.84626,2.45147 -5.89913,3.43171 -1.68239,0.80333 -3.39221,1.65765 -5.22639,1.99167 -5.3336,0.9713 -10.84922,-0.3314 -16.26385,-0.0621 -2.49206,0.12394 -5.17958,-0.27331 -7.44559,0.77117 -1.94619,0.89706 -2.96112,3.12207 -4.65722,4.43187 -1.46254,1.12944 -2.93944,2.3997 -4.71282,2.91912 -2.288418,0.67028 -7.152843,0.10943 -7.152843,0.10943 0,0 -2.571036,4.02374 -4.452956,5.40481 -1.5973,1.1722 -3.557408,1.89238 -5.509757,2.22964 -3.254902,0.56228 -6.761224,-1.4477 -9.900423,-0.4201 -2.16532,0.70881 -5.335772,4.27185 -5.335772,4.27185 l -3.318715,-1.33513 c 2.457348,3.3008 -1.895402,7.07081 0.765624,9.28253 1.950588,1.62124 6.587462,0.53146 9.964416,-0.58353 3.783566,0.89498 3.327416,5.5217 4.455831,6.37064 7.932782,4.69457 8.07085,1.5718 14.860502,2.52956 l 0.638947,-4.10093 c 0,0 0.823869,-3.82714 2.204494,-5.0286 1.31581,-1.14506 3.303742,-1.2212 5.036772,-1.41896 1.55084,-0.17697 3.16765,0.6178 4.67746,0.22171 1.10293,-0.28936 2.89736,-1.8185 2.89736,-1.8185 0,0 0.52416,-1.9297 1.2859,-2.44942 2.34654,-1.601 5.80153,0.0364 8.47044,-0.93644 2.82049,-1.02808 7.48867,-5.00289 7.48867,-5.00289 0,0 2.0274,-2.44376 3.46793,-2.84205 1.92913,-0.53337 3.96977,1.23373 5.93973,0.87973 1.73097,-0.31105 2.86513,-2.50883 4.62352,-2.54172 1.55843,-0.0291 4.1791,2.09786 4.1791,2.09786 l 0.0488,-14.89346 z"
             id="path853"
             sodipodi:nodetypes="caaaaaacaaaccsccccaaacaacaaaccc" />
          <path
             style="fill:#06971a;fill-opacity:1;stroke:#030000;stroke-width:1;stroke-linecap:round;stroke-linejoin:round;stroke-miterlimit:4;stroke-dasharray:none;stroke-opacity:1"
             d="m 74.596894,191.47284 2.675223,-2.3081 c 0,0 3.145055,0.31062 4.333931,-0.5288 0.6188,-0.43692 1.014238,-2.03362 1.014238,-2.03362"
             id="path855"
             sodipodi:nodetypes="ccac" />
          <path
             style="fill:#06971a;fill-opacity:1;stroke:#030000;stroke-width:1;stroke-linecap:round;stroke-linejoin:round;stroke-miterlimit:4;stroke-dasharray:none;stroke-opacity:1"
             d="m 79.052723,197.84348 c 0,0 1.75481,-0.96962 2.475747,-1.65088 0.752517,-0.71109 0.98649,-1.93728 1.866584,-2.4826 0.819085,-0.50752 2.842276,-0.527 2.842276,-0.527"
             id="path857"
             sodipodi:nodetypes="caac" />
        </g>
        <path
           style="fill:#920a01;fill-opacity:1;stroke:#000000;stroke-width:1;stroke-linecap:butt;stroke-linejoin:miter;stroke-miterlimit:4;stroke-dasharray:none;stroke-opacity:1"
           d="m 37.470315,82.740059 c 0,0 5.022002,2.979159 7.761241,3.931509 0.939525,0.326644 1.979656,0.282519 2.924394,0.593764 1.258914,0.41475 2.296625,1.462314 3.604103,1.679994 0.837514,0.139437 1.686814,-0.342468 2.532766,-0.270095 0.859429,0.07353 2.489112,0.707485 2.489112,0.707485 l 6.80582,-0.25434 7.48116,-1.100538 c 0,0 -4.937,-5.344342 -7.971743,-7.276997 -2.934303,-1.86869 -6.168885,-3.720553 -9.635718,-4.009012 -3.841736,-0.319653 -7.570484,1.516362 -11.2651,2.616785 -1.990182,0.592766 -5.85053,2.140344 -5.85053,2.140344 z"
           id="path902"
           sodipodi:nodetypes="caaaacccaaacc" />
        <path
           style="fill:none;stroke:#000000;stroke-width:1;stroke-linecap:butt;stroke-linejoin:miter;stroke-miterlimit:4;stroke-dasharray:none;stroke-opacity:1"
           d="m 94.240431,101.60931 7.613609,0.5253 5.82841,-2.159954 7.6908,-1.11613 -0.4536,54.031234 -2.82617,-5.10928 -6.75047,-9.02065 -2.77765,-10.3796 -1.926,-11.76312 -2.133209,-8.6144 z"
           id="path904"
           sodipodi:nodetypes="ccccccccccc" />
        <path
           style="fill:#d0920b;fill-opacity:1;stroke:#000000;stroke-width:1;stroke-linecap:round;stroke-linejoin:round;stroke-miterlimit:4;stroke-dasharray:none;stroke-opacity:1"
           d="m 93.643911,101.88569 c 0,0 6.05994,0.56915 8.965529,-0.13134 0.94633,-0.22814 1.7122,-0.93781 2.61872,-1.29252 1.64621,-0.644144 3.33763,-1.240114 5.08564,-1.503524 1.6232,-0.2446 4.92423,-0.0575 4.92423,-0.0575 l -0.42195,52.015294 c 0,0 -4.39881,-4.68315 -6.15148,-7.35624 -2.20997,-3.37054 -4.108,-6.99853 -5.41407,-10.8115 -1.0157,-2.96529 -1.28077,-6.13756 -1.82895,-9.22366 -0.55364,-3.11686 -0.67356,-6.31907 -1.473989,-9.38184 -0.7515,-2.87552 -1.62212,-5.78196 -3.10267,-8.35904 -0.83756,-1.45787 -3.20101,-3.89813 -3.20101,-3.89813 z"
           id="path908"
           sodipodi:nodetypes="caaaccaaaaac" />
        <path
           style="fill:none;stroke:#000000;stroke-width:1;stroke-linecap:round;stroke-linejoin:round;stroke-miterlimit:4;stroke-dasharray:none;stroke-opacity:1"
           d="m 106.04398,100.3884 c 0,0 0.27499,4.00691 -0.25076,5.90587 -0.54539,1.96992 -1.51631,3.90955 -2.92779,5.38798 -0.72382,0.75815 -2.69051,1.62772 -2.69051,1.62772"
           id="path910"
           sodipodi:nodetypes="caac" />
        <path
           style="fill:none;stroke:#000000;stroke-width:1;stroke-linecap:butt;stroke-linejoin:miter;stroke-miterlimit:4;stroke-dasharray:none;stroke-opacity:1"
           d="m 105.87832,105.45394 c 0,0 2.83174,0.96766 4.30686,1.13704 0.99231,0.11394 2.08349,0.31968 2.9952,-0.0883 0.78266,-0.35023 1.76979,-1.86676 1.76979,-1.86676"
           id="path912"
           sodipodi:nodetypes="caac" />
        <path
           style="fill:none;stroke:#000000;stroke-width:1;stroke-linecap:round;stroke-linejoin:round;stroke-miterlimit:4;stroke-dasharray:none;stroke-opacity:1"
           d="m 110.11397,106.7575 c 0,0 0.66926,3.19227 0.009,4.56219 -0.45606,0.94624 -1.57953,1.39933 -2.46885,1.95831 -0.79357,0.49879 -1.63178,0.95924 -2.52992,1.22739 -1.5376,0.45908 -4.77427,0.61731 -4.77427,0.61731"
           id="path914"
           sodipodi:nodetypes="caaac" />
        <path
           style="fill:none;stroke:#000000;stroke-width:1;stroke-linecap:round;stroke-linejoin:round;stroke-miterlimit:4;stroke-dasharray:none;stroke-opacity:1"
           d="m 112.53952,106.85035 c 0,0 1.91174,2.74158 1.96612,4.32397 0.0512,1.49109 -0.90293,2.85681 -1.56858,4.19205 -0.52733,1.05778 -0.94431,2.30141 -1.90411,2.99116 -0.51251,0.36831 -1.35935,0.0431 -1.83806,0.45437 -0.0291,0.025 -0.0442,0.10645 -0.0442,0.10645"
           id="path916"
           sodipodi:nodetypes="caaaac" />
        <path
           style="fill:none;stroke:#000000;stroke-width:1;stroke-linecap:round;stroke-linejoin:round;stroke-miterlimit:4;stroke-dasharray:none;stroke-opacity:1"
           d="m 105.85269,114.35934 c 0,0 2.07754,1.60633 2.64743,2.74178 0.52456,1.04513 0.68316,2.29831 0.5674,3.46195 -0.11037,1.10943 -0.47718,2.26447 -1.18067,3.12941 -0.71653,0.88098 -1.80979,1.43477 -2.87559,1.8267 -0.76163,0.28007 -2.41106,0.3369 -2.41106,0.3369"
           id="path918"
           sodipodi:nodetypes="caaaac" />
        <path
           style="fill:none;stroke:#000000;stroke-width:1;stroke-linecap:round;stroke-linejoin:round;stroke-miterlimit:4;stroke-dasharray:none;stroke-opacity:1"
           d="m 113.10227,115.97349 1.65812,2.16525"
           id="path920"
           sodipodi:nodetypes="cc" />
        <path
           style="fill:none;stroke:#000000;stroke-width:1;stroke-linecap:round;stroke-linejoin:round;stroke-miterlimit:4;stroke-dasharray:none;stroke-opacity:1"
           d="m 109.04058,121.38649 c 0,0 1.50906,1.58186 1.84772,2.58558 0.48283,1.431 -0.17671,3.05147 0.13749,4.52868 0.12874,0.60527 0.72023,1.09928 0.70374,1.71787 -0.0195,0.73197 -0.44703,1.44391 -0.93982,1.9855 -0.37401,0.41104 -1.02389,0.47593 -1.43307,0.85198 -0.68306,0.62777 -0.82145,1.7896 -1.61868,2.26404 -0.7693,0.45783 -2.66521,0.33094 -2.66521,0.33094"
           id="path922"
           sodipodi:nodetypes="caaaaaac" />
        <path
           style="fill:none;stroke:#000000;stroke-width:1;stroke-linecap:round;stroke-linejoin:round;stroke-miterlimit:4;stroke-dasharray:none;stroke-opacity:1"
           d="m 114.74911,126.7676 c 0,0 -1.01399,-0.93705 -1.65798,-1.07705 -0.32998,-0.0717 -0.67192,0.22068 -1.00199,0.14936 -0.4201,-0.0908 -1.08303,-0.69971 -1.08303,-0.69971"
           id="path924"
           sodipodi:nodetypes="caac" />
        <path
           style="fill:none;stroke:#000000;stroke-width:1;stroke-linecap:round;stroke-linejoin:round;stroke-miterlimit:4;stroke-dasharray:none;stroke-opacity:1"
           d="m 109.50627,134.00735 c 0.56652,0.20046 1.99445,0.64887 2.81181,1.27395 0.39941,0.30545 0.77391,0.69614 0.9607,1.16298 0.23252,0.58112 -0.0507,1.27462 0.13283,1.87303 0.19734,0.64356 1.0109,1.74817 1.0109,1.74817"
           id="path926"
           sodipodi:nodetypes="caaac" />
        <path
           style="fill:none;stroke:#000000;stroke-width:1;stroke-linecap:butt;stroke-linejoin:miter;stroke-miterlimit:4;stroke-dasharray:none;stroke-opacity:1"
           d="m 72.114721,88.071346 c 0,-0.277087 1.04285,-6.083945 1.04285,-6.083945 l 1.65724,-1.356051 1.64879,-3.088058 0.8618,0.642464 -0.14827,3.188759 -1.80026,3.775411 -1.93074,1.207664 z"
           id="path928" />
        <path
           style="fill:#bcab62;fill-opacity:1;stroke:#000000;stroke-width:1;stroke-linecap:round;stroke-linejoin:round;stroke-miterlimit:4;stroke-dasharray:none;stroke-opacity:1"
           d="m 72.053061,88.196188 c -1.11097,-0.473309 0.23746,-2.415437 0.55932,-3.57935 0.23514,-0.850316 0.5691,-1.679618 0.99293,-2.453372 0.27484,-0.501752 0.6706,-0.927223 0.99396,-1.399163 0.64883,-0.946945 0.73668,-2.522458 1.89802,-2.873442 1.67143,0.216418 0.72792,2.888966 0.49648,3.88434 -0.24413,1.061617 -0.85427,2.062843 -1.55964,2.906122 -0.4857,0.58066 -1.24984,0.870078 -1.77983,1.410618 -0.61707,0.629356 -0.79036,2.449706 -1.60124,2.104247 z"
           id="path930"
           sodipodi:nodetypes="aaaaccaaa" />
        <path
           style="fill:#cb9c0e;fill-opacity:1;stroke:#000000;stroke-width:1;stroke-linecap:round;stroke-linejoin:round;stroke-miterlimit:4;stroke-dasharray:none;stroke-opacity:1"
           d="m 73.844941,86.424574 c 0.68559,-0.535852 1.71935,-0.292377 2.55521,-0.534281 0.96838,-0.280258 1.90072,-0.675018 2.83336,-1.057756 1.40719,-0.577483 4.16375,-1.867147 4.16375,-1.867147 0,0 -1.63447,2.482356 -2.73241,3.458709 -1.17562,1.045426 -2.63743,1.722071 -4.01986,2.472993 -0.71791,0.389958 -1.39924,1.117054 -2.21364,1.052104 -0.69302,-0.0553 -1.54002,-0.510477 -1.71804,-1.182525 -0.22201,-0.838146 0.44849,-1.808158 1.13163,-2.342097 z"
           id="path932"
           sodipodi:nodetypes="aaacaaaaa" />
      </g>
    </g>
  </g>
</svg>
